<svg width="1440" height="90" viewBox="0 0 1440 90" fill="none" xmlns="http://www.w3.org/2000/svg">
<foreignObject x="-593" y="-50" width="3320" height="190"><div xmlns="http://www.w3.org/1999/xhtml" style="backdrop-filter:blur(25px);clip-path:url(#bgblur_0_18933_1314_clip_path);height:100%;width:100%"></div></foreignObject><g data-figma-bg-blur-radius="50">
<rect x="-543" width="3220" height="90" fill="#BCEC30"/>
<rect x="-542.5" y="0.5" width="3219" height="89" stroke="white" stroke-opacity="0.2"/>
<path d="M-117.43 33L-126.37 49.62C-127.23 51.22 -128.27 52.43 -129.49 53.25C-130.69 54.07 -132 54.48 -133.42 54.48C-134.52 54.48 -135.66 54.24 -136.84 53.76L-135.67 50.07C-134.83 50.33 -134.13 50.46 -133.57 50.46C-132.97 50.46 -132.43 50.32 -131.95 50.04C-131.47 49.74 -131.03 49.28 -130.63 48.66L-130.45 48.42L-138.73 33H-133.54L-127.96 44.28L-122.2 33H-117.43ZM-99.1305 36.96H-109.12L-109.09 54H-113.92V33H-99.1005L-99.1305 36.96ZM-84.7895 49.5H-94.5395L-96.3995 54H-101.38L-92.0195 33H-87.2195L-77.8295 54H-82.9295L-84.7895 49.5ZM-86.3195 45.81L-89.6495 37.77L-92.9795 45.81H-86.3195ZM-52.0089 50.04V58.35H-56.5089V54H-71.3289V58.35H-75.8289L-75.7989 50.04H-74.9589C-73.6989 50 -72.8089 49.08 -72.2889 47.28C-71.7689 45.48 -71.4489 42.91 -71.3289 39.57L-71.0889 33H-54.9489V50.04H-52.0089ZM-67.0389 40.02C-67.1389 42.52 -67.3489 44.62 -67.6689 46.32C-67.9889 48 -68.4789 49.24 -69.1389 50.04H-59.7489V36.96H-66.9489L-67.0389 40.02ZM-33.1415 49.5H-42.8915L-44.7515 54H-49.7315L-40.3715 33H-35.5715L-26.1815 54H-31.2815L-33.1415 49.5ZM-34.6715 45.81L-38.0015 37.77L-41.3315 45.81H-34.6715ZM-22.1966 33H-17.3666V46.68L-7.34665 33H-2.78665V54H-7.58665V40.35L-17.6066 54H-22.1966V33ZM-12.5066 31.65C-16.3466 31.65 -18.2866 30.12 -18.3266 27.06H-14.9966C-14.9566 28.52 -14.1266 29.25 -12.5066 29.25C-11.7066 29.25 -11.0966 29.07 -10.6766 28.71C-10.2566 28.33 -10.0366 27.78 -10.0166 27.06H-6.68665C-6.70665 28.56 -7.19665 29.7 -8.15665 30.48C-9.11665 31.26 -10.5666 31.65 -12.5066 31.65ZM30.5881 33V54H25.7881V46.44C23.9681 47.1 22.2781 47.43 20.7181 47.43C17.8981 47.43 15.7381 46.76 14.2381 45.42C12.7381 44.06 11.9881 42.11 11.9881 39.57V33H16.7881V39.03C16.7881 40.47 17.1681 41.56 17.9281 42.3C18.7081 43.02 19.8281 43.38 21.2881 43.38C22.8881 43.38 24.3881 43.07 25.7881 42.45V33H30.5881ZM37.0088 33H41.8388V46.68L51.8588 33H56.4188V54H51.6188V40.35L41.5988 54H37.0088V33ZM72.7775 54.36C70.6375 54.36 68.6975 53.9 66.9575 52.98C65.2375 52.04 63.8775 50.75 62.8775 49.11C61.8975 47.45 61.4075 45.58 61.4075 43.5C61.4075 41.42 61.8975 39.56 62.8775 37.92C63.8775 36.26 65.2375 34.97 66.9575 34.05C68.6975 33.11 70.6475 32.64 72.8075 32.64C74.6275 32.64 76.2675 32.96 77.7275 33.6C79.2075 34.24 80.4475 35.16 81.4475 36.36L78.3275 39.24C76.9075 37.6 75.1475 36.78 73.0475 36.78C71.7475 36.78 70.5875 37.07 69.5675 37.65C68.5475 38.21 67.7475 39 67.1675 40.02C66.6075 41.04 66.3275 42.2 66.3275 43.5C66.3275 44.8 66.6075 45.96 67.1675 46.98C67.7475 48 68.5475 48.8 69.5675 49.38C70.5875 49.94 71.7475 50.22 73.0475 50.22C75.1475 50.22 76.9075 49.39 78.3275 47.73L81.4475 50.61C80.4475 51.83 79.2075 52.76 77.7275 53.4C76.2475 54.04 74.5975 54.36 72.7775 54.36ZM104.037 33V54H99.237V36.96H92.037L91.887 41.34C91.787 44.32 91.547 46.74 91.167 48.6C90.787 50.44 90.147 51.86 89.247 52.86C88.367 53.84 87.127 54.33 85.527 54.33C84.867 54.33 84.067 54.22 83.127 54L83.427 49.89C83.687 49.97 83.977 50.01 84.297 50.01C85.457 50.01 86.267 49.33 86.727 47.97C87.187 46.59 87.477 44.44 87.597 41.52L87.897 33H104.037ZM120.502 54.36C118.322 54.36 116.352 53.89 114.592 52.95C112.852 52.01 111.482 50.72 110.482 49.08C109.502 47.42 109.012 45.56 109.012 43.5C109.012 41.44 109.502 39.59 110.482 37.95C111.482 36.29 112.852 34.99 114.592 34.05C116.352 33.11 118.322 32.64 120.502 32.64C122.682 32.64 124.642 33.11 126.382 34.05C128.122 34.99 129.492 36.29 130.492 37.95C131.492 39.59 131.992 41.44 131.992 43.5C131.992 45.56 131.492 47.42 130.492 49.08C129.492 50.72 128.122 52.01 126.382 52.95C124.642 53.89 122.682 54.36 120.502 54.36ZM120.502 50.22C121.742 50.22 122.862 49.94 123.862 49.38C124.862 48.8 125.642 48 126.202 46.98C126.782 45.96 127.072 44.8 127.072 43.5C127.072 42.2 126.782 41.04 126.202 40.02C125.642 39 124.862 38.21 123.862 37.65C122.862 37.07 121.742 36.78 120.502 36.78C119.262 36.78 118.142 37.07 117.142 37.65C116.142 38.21 115.352 39 114.772 40.02C114.212 41.04 113.932 42.2 113.932 43.5C113.932 44.8 114.212 45.96 114.772 46.98C115.352 48 116.142 48.8 117.142 49.38C118.142 49.94 119.262 50.22 120.502 50.22Z" fill="#202027"/>
<path d="M203 27L207.862 40.1384L221 45L207.862 49.8616L203 63L198.138 49.8616L185 45L198.138 40.1384L203 27Z" fill="#202027"/>
<path d="M293.75 33V54H288.92V36.96H279.44V54H274.61V33H293.75ZM316.416 50.1V54H300.156V33H316.026V36.9H304.986V41.46H314.736V45.24H304.986V50.1H316.416ZM330.631 33C332.491 33 334.101 33.31 335.461 33.93C336.841 34.55 337.901 35.43 338.641 36.57C339.381 37.71 339.751 39.06 339.751 40.62C339.751 42.16 339.381 43.51 338.641 44.67C337.901 45.81 336.841 46.69 335.461 47.31C334.101 47.91 332.491 48.21 330.631 48.21H326.401V54H321.541V33H330.631ZM330.361 44.25C331.821 44.25 332.931 43.94 333.691 43.32C334.451 42.68 334.831 41.78 334.831 40.62C334.831 39.44 334.451 38.54 333.691 37.92C332.931 37.28 331.821 36.96 330.361 36.96H326.401V44.25H330.361ZM360.417 50.1V54H344.157V33H360.027V36.9H348.987V41.46H358.737V45.24H348.987V50.1H360.417ZM380.093 43.05C381.373 43.43 382.353 44.05 383.033 44.91C383.713 45.77 384.053 46.83 384.053 48.09C384.053 49.95 383.343 51.4 381.923 52.44C380.523 53.48 378.513 54 375.893 54H365.543V33H375.323C377.763 33 379.663 33.47 381.023 34.41C382.383 35.35 383.063 36.69 383.063 38.43C383.063 39.47 382.803 40.39 382.283 41.19C381.763 41.97 381.033 42.59 380.093 43.05ZM370.373 41.7H374.903C375.963 41.7 376.763 41.49 377.303 41.07C377.843 40.63 378.113 39.99 378.113 39.15C378.113 38.33 377.833 37.7 377.273 37.26C376.733 36.82 375.943 36.6 374.903 36.6H370.373V41.7ZM375.713 50.4C377.993 50.4 379.133 49.5 379.133 47.7C379.133 45.96 377.993 45.09 375.713 45.09H370.373V50.4H375.713ZM405.356 50.1V54H389.096V33H404.966V36.9H393.926V41.46H403.676V45.24H393.926V50.1H405.356ZM419.572 33C421.432 33 423.042 33.31 424.402 33.93C425.782 34.55 426.842 35.43 427.582 36.57C428.322 37.71 428.692 39.06 428.692 40.62C428.692 42.16 428.322 43.51 427.582 44.67C426.842 45.81 425.782 46.69 424.402 47.31C423.042 47.91 421.432 48.21 419.572 48.21H415.342V54H410.482V33H419.572ZM419.302 44.25C420.762 44.25 421.872 43.94 422.632 43.32C423.392 42.68 423.772 41.78 423.772 40.62C423.772 39.44 423.392 38.54 422.632 37.92C421.872 37.28 420.762 36.96 419.302 36.96H415.342V44.25H419.302ZM452.358 33V54H447.498V45.39H437.958V54H433.098V33H437.958V41.28H447.498V33H452.358ZM458.819 33H463.649V46.68L473.669 33H478.229V54H473.429V40.35L463.409 54H458.819V33ZM510.404 36.96H503.684V54H498.884V36.96H492.194V33H510.404V36.96ZM530.916 50.1V54H514.656V33H530.526V36.9H519.486V41.46H529.236V45.24H519.486V50.1H530.916ZM544.171 45.54H540.811V54H535.981V33H540.811V41.49H544.291L549.811 33H554.941L548.071 43.14L555.151 54H549.631L544.171 45.54ZM568.47 54.36C566.33 54.36 564.39 53.9 562.65 52.98C560.93 52.04 559.57 50.75 558.57 49.11C557.59 47.45 557.1 45.58 557.1 43.5C557.1 41.42 557.59 39.56 558.57 37.92C559.57 36.26 560.93 34.97 562.65 34.05C564.39 33.11 566.34 32.64 568.5 32.64C570.32 32.64 571.96 32.96 573.42 33.6C574.9 34.24 576.14 35.16 577.14 36.36L574.02 39.24C572.6 37.6 570.84 36.78 568.74 36.78C567.44 36.78 566.28 37.07 565.26 37.65C564.24 38.21 563.44 39 562.86 40.02C562.3 41.04 562.02 42.2 562.02 43.5C562.02 44.8 562.3 45.96 562.86 46.98C563.44 48 564.24 48.8 565.26 49.38C566.28 49.94 567.44 50.22 568.74 50.22C570.84 50.22 572.6 49.39 574.02 47.73L577.14 50.61C576.14 51.83 574.9 52.76 573.42 53.4C571.94 54.04 570.29 54.36 568.47 54.36ZM597.353 36.96H590.633V54H585.833V36.96H579.143V33H597.353V36.96Z" fill="#202027"/>
<path d="M667 27L671.862 40.1384L685 45L671.862 49.8616L667 63L662.138 49.8616L649 45L662.138 40.1384L667 27Z" fill="#202027"/>
<path d="M757.75 33V54H752.92V36.96H743.44V54H738.61V33H757.75ZM773.246 33C775.106 33 776.716 33.31 778.076 33.93C779.456 34.55 780.516 35.43 781.256 36.57C781.996 37.71 782.366 39.06 782.366 40.62C782.366 42.16 781.996 43.51 781.256 44.67C780.516 45.81 779.456 46.69 778.076 47.31C776.716 47.91 775.106 48.21 773.246 48.21H769.016V54H764.156V33H773.246ZM772.976 44.25C774.436 44.25 775.546 43.94 776.306 43.32C777.066 42.68 777.446 41.78 777.446 40.62C777.446 39.44 777.066 38.54 776.306 37.92C775.546 37.28 774.436 36.96 772.976 36.96H769.016V44.25H772.976ZM797.085 54.36C794.905 54.36 792.935 53.89 791.175 52.95C789.435 52.01 788.065 50.72 787.065 49.08C786.085 47.42 785.595 45.56 785.595 43.5C785.595 41.44 786.085 39.59 787.065 37.95C788.065 36.29 789.435 34.99 791.175 34.05C792.935 33.11 794.905 32.64 797.085 32.64C799.265 32.64 801.225 33.11 802.965 34.05C804.705 34.99 806.075 36.29 807.075 37.95C808.075 39.59 808.575 41.44 808.575 43.5C808.575 45.56 808.075 47.42 807.075 49.08C806.075 50.72 804.705 52.01 802.965 52.95C801.225 53.89 799.265 54.36 797.085 54.36ZM797.085 50.22C798.325 50.22 799.445 49.94 800.445 49.38C801.445 48.8 802.225 48 802.785 46.98C803.365 45.96 803.655 44.8 803.655 43.5C803.655 42.2 803.365 41.04 802.785 40.02C802.225 39 801.445 38.21 800.445 37.65C799.445 37.07 798.325 36.78 797.085 36.78C795.845 36.78 794.725 37.07 793.725 37.65C792.725 38.21 791.935 39 791.355 40.02C790.795 41.04 790.515 42.2 790.515 43.5C790.515 44.8 790.795 45.96 791.355 46.98C791.935 48 792.725 48.8 793.725 49.38C794.725 49.94 795.845 50.22 797.085 50.22ZM823.449 54.36C821.309 54.36 819.369 53.9 817.629 52.98C815.909 52.04 814.549 50.75 813.549 49.11C812.569 47.45 812.079 45.58 812.079 43.5C812.079 41.42 812.569 39.56 813.549 37.92C814.549 36.26 815.909 34.97 817.629 34.05C819.369 33.11 821.319 32.64 823.479 32.64C825.299 32.64 826.939 32.96 828.399 33.6C829.879 34.24 831.119 35.16 832.119 36.36L828.999 39.24C827.579 37.6 825.819 36.78 823.719 36.78C822.419 36.78 821.259 37.07 820.239 37.65C819.219 38.21 818.419 39 817.839 40.02C817.279 41.04 816.999 42.2 816.999 43.5C816.999 44.8 817.279 45.96 817.839 46.98C818.419 48 819.219 48.8 820.239 49.38C821.259 49.94 822.419 50.22 823.719 50.22C825.819 50.22 827.579 49.39 828.999 47.73L832.119 50.61C831.119 51.83 829.879 52.76 828.399 53.4C826.919 54.04 825.269 54.36 823.449 54.36ZM852.331 36.96H845.611V54H840.811V36.96H834.121V33H852.331V36.96ZM869.748 49.5H859.998L858.138 54H853.158L862.518 33H867.318L876.708 54H871.608L869.748 49.5ZM868.218 45.81L864.888 37.77L861.558 45.81H868.218ZM896.379 33V54H891.579V48.42H887.139L883.419 54H878.289L882.669 47.67C881.249 47.09 880.159 46.22 879.399 45.06C878.639 43.88 878.259 42.47 878.259 40.83C878.259 39.21 878.629 37.82 879.369 36.66C880.109 35.48 881.159 34.58 882.519 33.96C883.879 33.32 885.479 33 887.319 33H896.379ZM887.439 36.96C886.059 36.96 884.999 37.28 884.259 37.92C883.539 38.56 883.179 39.51 883.179 40.77C883.179 41.99 883.529 42.93 884.229 43.59C884.929 44.25 885.959 44.58 887.319 44.58H891.579V36.96H887.439ZM926.756 49.5H917.006L915.146 54H910.166L919.526 33H924.326L933.716 54H928.616L926.756 49.5ZM925.226 45.81L921.896 37.77L918.566 45.81H925.226ZM946.791 33C948.651 33 950.261 33.31 951.621 33.93C953.001 34.55 954.061 35.43 954.801 36.57C955.541 37.71 955.911 39.06 955.911 40.62C955.911 42.16 955.541 43.51 954.801 44.67C954.061 45.81 953.001 46.69 951.621 47.31C950.261 47.91 948.651 48.21 946.791 48.21H942.561V54H937.701V33H946.791ZM946.521 44.25C947.981 44.25 949.091 43.94 949.851 43.32C950.611 42.68 950.991 41.78 950.991 40.62C950.991 39.44 950.611 38.54 949.851 37.92C949.091 37.28 947.981 36.96 946.521 36.96H942.561V44.25H946.521ZM960.317 33H965.147V46.68L975.167 33H979.727V54H974.927V40.35L964.907 54H960.317V33ZM1011.03 43.44C1011.03 46.22 1010.08 48.41 1008.18 50.01C1006.3 51.59 1003.59 52.47 1000.05 52.65V54.93H995.576V52.62C992.016 52.42 989.286 51.53 987.386 49.95C985.506 48.35 984.566 46.18 984.566 43.44C984.566 40.68 985.506 38.52 987.386 36.96C989.286 35.38 992.016 34.48 995.576 34.26V32.1H1000.05V34.23C1003.59 34.43 1006.3 35.33 1008.18 36.93C1010.08 38.53 1011.03 40.7 1011.03 43.44ZM1000.05 48.84C1002.17 48.64 1003.75 48.1 1004.79 47.22C1005.83 46.32 1006.35 45.05 1006.35 43.41C1006.35 40.21 1004.25 38.43 1000.05 38.07V48.84ZM989.276 43.44C989.276 46.6 991.376 48.4 995.576 48.84V38.07C993.436 38.27 991.846 38.81 990.806 39.69C989.786 40.55 989.276 41.8 989.276 43.44ZM1034.97 54L1034.94 41.43L1028.76 51.78H1026.6L1020.42 41.67V54H1015.86V33H1019.88L1027.74 46.05L1035.48 33H1039.5L1039.53 54H1034.97ZM1062.21 50.1V54H1045.95V33H1061.82V36.9H1050.78V41.46H1060.53V45.24H1050.78V50.1H1062.21ZM1083.38 36.96H1076.66V54H1071.86V36.96H1065.17V33H1083.38V36.96ZM1087.64 33H1092.47V46.68L1102.49 33H1107.05V54H1102.25V40.35L1092.23 54H1087.64V33ZM1121.6 45.54H1118.24V54H1113.41V33H1118.24V41.49H1121.72L1127.24 33H1132.37L1125.5 43.14L1132.58 54H1127.06L1121.6 45.54ZM1149.87 49.5H1140.12L1138.26 54H1133.28L1142.64 33H1147.44L1156.83 54H1151.73L1149.87 49.5ZM1148.34 45.81L1145.01 37.77L1141.68 45.81H1148.34Z" fill="#202027"/>
<path d="M1227 27L1231.86 40.1384L1245 45L1231.86 49.8616L1227 63L1222.14 49.8616L1209 45L1222.14 40.1384L1227 27Z" fill="#202027"/>
<path d="M1306.74 45.54H1303.38V54H1298.55V33H1303.38V41.49H1306.86L1312.38 33H1317.51L1310.64 43.14L1317.72 54H1312.2L1306.74 45.54ZM1335.01 49.5H1325.26L1323.4 54H1318.42L1327.78 33H1332.58L1341.97 54H1336.87L1335.01 49.5ZM1333.48 45.81L1330.15 37.77L1326.82 45.81H1333.48ZM1365.06 54L1365.03 41.43L1358.85 51.78H1356.69L1350.51 41.67V54H1345.95V33H1349.97L1357.83 46.05L1365.57 33H1369.59L1369.62 54H1365.06ZM1392.3 50.1V54H1376.04V33H1391.91V36.9H1380.87V41.46H1390.62V45.24H1380.87V50.1H1392.3ZM1416.68 33V54H1411.82V45.39H1402.28V54H1397.42V33H1402.28V41.28H1411.82V33H1416.68ZM1433.32 39.9C1435.88 39.9 1437.84 40.47 1439.2 41.61C1440.58 42.75 1441.27 44.44 1441.27 46.68C1441.27 49.06 1440.51 50.88 1438.99 52.14C1437.49 53.38 1435.37 54 1432.63 54H1423.15V33H1427.98V39.9H1433.32ZM1432.36 50.4C1433.62 50.4 1434.6 50.09 1435.3 49.47C1436.02 48.85 1436.38 47.95 1436.38 46.77C1436.38 44.59 1435.04 43.5 1432.36 43.5H1427.98V50.4H1432.36ZM1446.96 48.42C1447.8 48.42 1448.49 48.69 1449.03 49.23C1449.57 49.75 1449.84 50.44 1449.84 51.3C1449.84 51.7 1449.79 52.1 1449.69 52.5C1449.59 52.9 1449.37 53.5 1449.03 54.3L1447.32 58.62H1444.35L1445.67 53.85C1445.17 53.65 1444.77 53.33 1444.47 52.89C1444.19 52.43 1444.05 51.9 1444.05 51.3C1444.05 50.44 1444.32 49.75 1444.86 49.23C1445.42 48.69 1446.12 48.42 1446.96 48.42ZM1483.62 33V54H1478.76V45.39H1469.22V54H1464.36V33H1469.22V41.28H1478.76V33H1483.62ZM1500.1 54.36C1497.92 54.36 1495.95 53.89 1494.19 52.95C1492.45 52.01 1491.08 50.72 1490.08 49.08C1489.1 47.42 1488.61 45.56 1488.61 43.5C1488.61 41.44 1489.1 39.59 1490.08 37.95C1491.08 36.29 1492.45 34.99 1494.19 34.05C1495.95 33.11 1497.92 32.64 1500.1 32.64C1502.28 32.64 1504.24 33.11 1505.98 34.05C1507.72 34.99 1509.09 36.29 1510.09 37.95C1511.09 39.59 1511.59 41.44 1511.59 43.5C1511.59 45.56 1511.09 47.42 1510.09 49.08C1509.09 50.72 1507.72 52.01 1505.98 52.95C1504.24 53.89 1502.28 54.36 1500.1 54.36ZM1500.1 50.22C1501.34 50.22 1502.46 49.94 1503.46 49.38C1504.46 48.8 1505.24 48 1505.8 46.98C1506.38 45.96 1506.67 44.8 1506.67 43.5C1506.67 42.2 1506.38 41.04 1505.8 40.02C1505.24 39 1504.46 38.21 1503.46 37.65C1502.46 37.07 1501.34 36.78 1500.1 36.78C1498.86 36.78 1497.74 37.07 1496.74 37.65C1495.74 38.21 1494.95 39 1494.37 40.02C1493.81 41.04 1493.53 42.2 1493.53 43.5C1493.53 44.8 1493.81 45.96 1494.37 46.98C1494.95 48 1495.74 48.8 1496.74 49.38C1497.74 49.94 1498.86 50.22 1500.1 50.22ZM1534.83 45.54H1531.77V54H1527V45.54H1523.88L1519.17 54H1513.56L1519.86 43.02L1513.95 33H1519.08L1523.79 41.49H1527V33H1531.77V41.49H1534.89L1539.63 33H1544.76L1538.88 43.02L1545.15 54H1539.54L1534.83 45.54ZM1567.94 33V54H1563.08V45.39H1553.54V54H1548.68V33H1553.54V41.28H1563.08V33H1567.94ZM1574.4 33H1579.23V46.68L1589.25 33H1593.81V54H1589.01V40.35L1578.99 54H1574.4V33ZM1622.26 50.04V58.44H1617.79V54H1600.24V33H1605.07V50.04H1614.43V33H1619.26V50.04H1622.26ZM1636.83 39.9C1639.39 39.9 1641.35 40.47 1642.71 41.61C1644.09 42.75 1644.78 44.44 1644.78 46.68C1644.78 49.06 1644.02 50.88 1642.5 52.14C1641 53.38 1638.88 54 1636.14 54H1626.66V33H1631.49V39.9H1636.83ZM1635.87 50.4C1637.13 50.4 1638.11 50.09 1638.81 49.47C1639.53 48.85 1639.89 47.95 1639.89 46.77C1639.89 44.59 1638.55 43.5 1635.87 43.5H1631.49V50.4H1635.87ZM1647.45 33H1652.28V54H1647.45V33ZM1660.06 48.42C1660.9 48.42 1661.59 48.69 1662.13 49.23C1662.67 49.75 1662.94 50.44 1662.94 51.3C1662.94 51.7 1662.89 52.1 1662.79 52.5C1662.69 52.9 1662.47 53.5 1662.13 54.3L1660.42 58.62H1657.45L1658.77 53.85C1658.27 53.65 1657.87 53.33 1657.57 52.89C1657.29 52.43 1657.15 51.9 1657.15 51.3C1657.15 50.44 1657.42 49.75 1657.96 49.23C1658.52 48.69 1659.22 48.42 1660.06 48.42ZM1677.46 33H1694.41V36.87H1682.29V41.19H1688.11C1690.65 41.19 1692.58 41.72 1693.9 42.78C1695.24 43.84 1695.91 45.37 1695.91 47.37C1695.91 49.47 1695.17 51.1 1693.69 52.26C1692.21 53.42 1690.12 54 1687.42 54H1677.46V33ZM1687.15 50.4C1688.39 50.4 1689.34 50.16 1690 49.68C1690.66 49.18 1690.99 48.46 1690.99 47.52C1690.99 45.68 1689.71 44.76 1687.15 44.76H1682.29V50.4H1687.15ZM1718.97 33L1710.03 49.62C1709.17 51.22 1708.13 52.43 1706.91 53.25C1705.71 54.07 1704.4 54.48 1702.98 54.48C1701.88 54.48 1700.74 54.24 1699.56 53.76L1700.73 50.07C1701.57 50.33 1702.27 50.46 1702.83 50.46C1703.43 50.46 1703.97 50.32 1704.45 50.04C1704.93 49.74 1705.37 49.28 1705.77 48.66L1705.95 48.42L1697.67 33H1702.86L1708.44 44.28L1714.2 33H1718.97ZM1741.59 54L1741.56 41.43L1735.38 51.78H1733.22L1727.04 41.67V54H1722.48V33H1726.5L1734.36 46.05L1742.1 33H1746.12L1746.15 54H1741.59ZM1766.79 49.5H1757.04L1755.18 54H1750.2L1759.56 33H1764.36L1773.75 54H1768.65L1766.79 49.5ZM1765.26 45.81L1761.93 37.77L1758.6 45.81H1765.26ZM1792.53 36.96H1782.54L1782.57 54H1777.74V33H1792.56L1792.53 36.96ZM1806.87 49.5H1797.12L1795.26 54H1790.28L1799.64 33H1804.44L1813.83 54H1808.73L1806.87 49.5ZM1805.34 45.81L1802.01 37.77L1798.68 45.81H1805.34Z" fill="#202027"/>
</g>
<defs>
<clipPath id="bgblur_0_18933_1314_clip_path" transform="translate(593 50)"><rect x="-543" width="3220" height="90"/>
</clipPath></defs>
</svg>
